<?xml version="1.0" encoding="utf-8"?>
<!-- Generator: Adobe Illustrator 19.2.1, SVG Export Plug-In . SVG Version: 6.00 Build 0)  -->
<svg version="1.1" xmlns="http://www.w3.org/2000/svg" xmlns:xlink="http://www.w3.org/1999/xlink" x="0px" y="0px"
	 viewBox="0 0 1093.83 779.312" style="enable-background:new 0 0 1093.83 779.312;" xml:space="preserve">
<g id="background">
</g>
<g id="objects">
	<g>
		<path style="fill:#29ABE2;" d="M575.701,99.725c-90.37,0-163.627,73.258-163.627,163.626c0,29.896,8.022,57.918,22.026,82.034
			l-28.773,83.84l92.604-21.877c23.132,12.519,49.62,19.63,77.77,19.63c90.367,0,163.626-73.259,163.626-163.627
			C739.327,172.983,666.068,99.725,575.701,99.725z"/>
		<path style="opacity:0.19;fill:#0071BC;" d="M688.834,145.14L405.431,428.543l-0.152,0.634l92.629-21.853
			c23.132,12.519,49.632,19.642,77.782,19.642c90.367,0,163.583-73.302,163.583-163.67
			C739.272,216.871,719.877,174.908,688.834,145.14z"/>
		<circle style="fill:#F9F9F9;" cx="575.701" cy="264.476" r="138.325"/>
	</g>
	<path style="fill:#1F85CD;" d="M421.29,504.863h32.015c25.719,0,40.677,10.497,48.55,19.156
		c10.497,11.547,15.748,27.031,15.748,45.139s-5.251,33.853-15.748,45.139c-7.872,8.923-22.831,19.42-48.55,19.42h-27.292v65.871
		h-30.442V504.863H421.29z M490.308,569.157c0-7.611-1.573-18.633-8.659-26.506c-6.299-6.824-15.745-10.497-28.343-10.497h-27.292
		v74.005h27.292c12.598,0,22.044-3.411,28.343-10.233C488.734,588.052,490.308,577.03,490.308,569.157z"/>
	<path style="fill:#1F85CD;" d="M567.225,584.116h71.119v27.556h-71.119v60.358h86.339v27.556h-86.603h-30.178V504.863h30.178
		h86.603v27.292h-86.339V584.116z"/>
	<path style="fill:#1F85CD;" d="M786.64,660.483c-5.51,18.897-22.569,33.855-43.824,38.053c-3.939,0.789-7.875,1.051-11.811,1.051
		c-7.872,0-15.745-1.312-23.095-4.198c-12.334-4.987-23.092-13.123-32.277-24.932l24.143-18.895
		c5.51,7.347,12.073,12.595,19.158,15.22c5.771,2.363,12.07,2.888,17.844,1.576c9.974-1.837,18.108-8.398,20.471-16.273
		c2.624-8.921-3.411-16.796-8.923-22.044c-8.659-8.134-22.831-22.044-23.881-23.092l-23.881-22.569
		c-7.347-7.086-12.334-14.961-14.958-23.356c-2.624-8.136-2.888-16.796-0.525-24.671c2.363-8.398,7.35-15.745,14.433-21.78
		c6.563-5.512,14.697-9.449,23.359-11.022c9.446-2.101,19.42-1.315,28.866,2.099c9.974,3.936,18.897,10.497,26.506,19.681
		l-23.881,19.158c-9.971-12.073-20.207-12.073-25.716-11.022c-6.824,1.312-12.598,5.774-14.172,11.283
		c-1.051,3.675-0.789,9.71,7.347,17.585l32.541,31.229c4.726,4.723,10.499,10.235,14.697,14.172
		c8.398,7.611,14.172,16.27,17.06,25.455C789.003,642.114,789.264,651.562,786.64,660.483z"/>
	<path style="fill:#1F85CD;" d="M857.332,691.976c-11.809-4.987-22.044-12.07-30.967-20.993
		c-8.923-8.923-16.009-19.158-20.993-30.967c-4.987-11.809-7.611-24.668-7.611-37.792c0-13.121,2.624-25.98,7.611-38.053
		c4.984-11.547,12.07-21.78,20.993-30.967c8.923-8.921,19.158-15.745,30.967-20.732c11.809-4.984,24.668-7.609,37.792-7.609
		c13.121,0,25.98,2.624,38.053,7.609c11.545,4.987,21.78,11.811,30.967,20.732c8.921,9.187,15.745,19.42,20.732,30.967
		c4.984,12.073,7.609,24.932,7.609,38.053c0,13.123-2.624,25.983-7.609,37.792c-4.987,11.809-11.811,22.044-20.732,30.967
		c-9.187,8.923-19.422,16.006-30.967,20.993c-12.073,4.987-24.932,7.611-38.053,7.611C882,699.587,869.141,696.962,857.332,691.976z
		 M847.886,554.986c-12.598,12.598-19.684,29.394-19.684,47.238c0,17.846,7.086,34.642,19.684,47.238
		c12.595,12.598,29.391,19.684,47.238,19.684c17.844,0,34.639-7.086,47.238-19.684c12.595-12.596,19.681-29.391,19.681-47.238
		c0-17.844-7.086-34.64-19.681-47.238c-12.598-12.596-29.394-19.681-47.238-19.681C877.278,535.305,860.482,542.39,847.886,554.986z
		"/>
	<path style="fill:#29ABE2;" d="M203.436,657.859h-69.282l-16.534,41.728H84.028l84.765-203.647l84.504,203.647H219.97
		L203.436,657.859z M192.414,630.566l-23.62-59.31l-23.617,59.31H192.414z"/>
	<path style="fill:#FFFFFF;" d="M364.693,504.863h32.018c25.719,0,40.677,10.497,48.55,19.156
		c10.497,11.547,15.748,27.031,15.748,45.139s-5.251,33.853-15.748,45.139c-7.872,8.923-22.831,19.42-48.55,19.42h-27.292v65.871
		h-30.442V504.863H364.693z M433.714,569.157c0-7.611-1.573-18.633-8.659-26.506c-6.299-6.824-15.745-10.497-28.343-10.497h-27.292
		v74.005h27.292c12.598,0,22.044-3.411,28.343-10.233C432.14,588.052,433.714,577.03,433.714,569.157z"/>
	<path style="fill:#2191D2;" d="M360.693,504.863h32.018c25.719,0,40.677,10.497,48.55,19.156
		c10.497,11.547,15.748,27.031,15.748,45.139s-5.251,33.853-15.748,45.139c-7.872,8.923-22.831,19.42-48.55,19.42h-27.292v65.871
		h-30.442V504.863H360.693z"/>
	<path style="fill:#FFFFFF;" d="M429.714,569.157c0-7.611-1.573-18.633-8.659-26.506c-6.299-6.824-15.745-10.497-28.343-10.497
		h-27.292v74.005h27.292c12.598,0,22.044-3.411,28.343-10.233C428.14,588.052,429.714,577.03,429.714,569.157z"/>
	<path style="fill:#FFFFFF;" d="M304.032,504.863h32.018c25.719,0,40.677,10.497,48.55,19.156
		c10.497,11.547,15.748,27.031,15.748,45.139s-5.251,33.853-15.748,45.139c-7.872,8.923-22.831,19.42-48.55,19.42h-27.292v65.871
		h-30.442V504.863H304.032z M373.052,569.157c0-7.611-1.573-18.633-8.659-26.506c-6.299-6.824-15.745-10.497-28.343-10.497h-27.292
		v74.005h27.292c12.598,0,22.044-3.411,28.343-10.233C371.479,588.052,373.052,577.03,373.052,569.157z"/>
	<path style="fill:#29ABE2;" d="M300.032,504.863h32.018c25.719,0,40.677,10.497,48.55,19.156
		c10.497,11.547,15.748,27.031,15.748,45.139s-5.251,33.853-15.748,45.139c-7.872,8.923-22.831,19.42-48.55,19.42h-27.292v65.871
		h-30.442V504.863H300.032z"/>
	<path style="fill:#FFFFFF;" d="M369.052,569.157c0-7.611-1.573-18.633-8.659-26.506c-6.299-6.824-15.745-10.497-28.343-10.497
		h-27.292v74.005h27.292c12.598,0,22.044-3.411,28.343-10.233C367.479,588.052,369.052,577.03,369.052,569.157z"/>
	<g>
		<circle style="fill:#F9F9F9;" cx="524.652" cy="144.802" r="4.76"/>
		<path style="fill:#878787;" d="M559.662,163.595c-0.395-5.927-5.314-10.616-11.341-10.616h-4.238
			c0.011-0.274,0.041-0.544,0.041-0.82c0-2.495-0.487-4.872-1.342-7.065c-2.831-7.257-9.871-12.407-18.129-12.407
			c-2.629,0-5.133,0.528-7.422,1.472c-7.07,2.919-12.05,9.874-12.05,17.999c0,0.277,0.03,0.546,0.041,0.82h-4.238
			c-6.027,0-10.947,4.689-11.341,10.616c-0.017,0.254-0.039,0.506-0.039,0.764v11.08c0,0.441,0.031,0.874,0.08,1.301
			c0.646,5.672,5.456,10.079,11.3,10.079h47.337c5.844,0,10.654-4.407,11.3-10.079c0.049-0.428,0.08-0.861,0.08-1.301v-11.08
			C559.7,164.101,559.679,163.849,559.662,163.595z M524.652,149.562c-2.629,0-4.76-2.131-4.76-4.76c0-2.629,2.131-4.76,4.76-4.76
			c2.629,0,4.76,2.131,4.76,4.76C529.412,147.431,527.28,149.562,524.652,149.562z"/>
		<g>
			<path style="fill:#8C5F00;" d="M581.979,163.595h-14.316h-8c0.017,0.254,0.039,0.506,0.039,0.764v11.08
				c0,0.441-0.031,0.874-0.08,1.301h19.985h2.42v3.185v138.002H467.279V176.74h22.405c-0.049-0.428-0.08-0.861-0.08-1.301v-11.08
				c0-0.258,0.021-0.51,0.039-0.764h-22.317c-6.88,0-12.458,5.577-12.458,12.458v142.199c0,6.88,5.577,12.458,12.458,12.458h113.166
				c5.417-7.045,10.104-14.679,13.945-22.794v-107.23v-24.632C594.436,169.173,588.859,163.595,581.979,163.595z"/>
			<g>
				<path style="fill:#FFFFFF;" d="M579.605,176.74H559.62c-0.646,5.672-5.456,10.079-11.3,10.079h-47.337
					c-5.844,0-10.654-4.407-11.3-10.079h-22.405v141.187h114.746V179.925v-3.185H579.605z"/>
				<g>
					<g>
						<path style="fill:#CFCFCF;" d="M568.326,204.906h-87.347c-0.951,0-1.721-0.77-1.721-1.721c0-0.951,0.77-1.721,1.721-1.721
							h87.347c0.951,0,1.721,0.77,1.721,1.721C570.047,204.136,569.277,204.906,568.326,204.906z"/>
					</g>
					<g>
						<path style="fill:#CFCFCF;" d="M568.326,219.105h-87.347c-0.951,0-1.721-0.77-1.721-1.721c0-0.951,0.77-1.721,1.721-1.721
							h87.347c0.951,0,1.721,0.77,1.721,1.721C570.047,218.335,569.277,219.105,568.326,219.105z"/>
					</g>
					<g>
						<path style="fill:#CFCFCF;" d="M568.326,233.304h-87.347c-0.951,0-1.721-0.77-1.721-1.721c0-0.951,0.77-1.721,1.721-1.721
							h87.347c0.951,0,1.721,0.77,1.721,1.721C570.047,232.535,569.277,233.304,568.326,233.304z"/>
					</g>
					<g>
						<path style="fill:#CFCFCF;" d="M568.326,247.503h-87.347c-0.951,0-1.721-0.77-1.721-1.721s0.77-1.721,1.721-1.721h87.347
							c0.951,0,1.721,0.77,1.721,1.721S569.277,247.503,568.326,247.503z"/>
					</g>
					<g>
						<path style="fill:#CFCFCF;" d="M568.326,261.703h-87.347c-0.951,0-1.721-0.77-1.721-1.721c0-0.951,0.77-1.721,1.721-1.721
							h87.347c0.951,0,1.721,0.77,1.721,1.721C570.047,260.933,569.277,261.703,568.326,261.703z"/>
					</g>
					<g>
						<path style="fill:#CFCFCF;" d="M568.326,275.902h-87.347c-0.951,0-1.721-0.77-1.721-1.721c0-0.951,0.77-1.721,1.721-1.721
							h87.347c0.951,0,1.721,0.77,1.721,1.721C570.047,275.132,569.277,275.902,568.326,275.902z"/>
					</g>
					<g>
						<path style="fill:#CFCFCF;" d="M568.326,290.101h-87.347c-0.951,0-1.721-0.77-1.721-1.721c0-0.951,0.77-1.721,1.721-1.721
							h87.347c0.951,0,1.721,0.77,1.721,1.721C570.047,289.331,569.277,290.101,568.326,290.101z"/>
					</g>
					<g>
						<path style="fill:#CFCFCF;" d="M568.326,304.301h-87.347c-0.951,0-1.721-0.77-1.721-1.721c0-0.951,0.77-1.721,1.721-1.721
							h87.347c0.951,0,1.721,0.77,1.721,1.721C570.047,303.531,569.277,304.301,568.326,304.301z"/>
					</g>
				</g>
			</g>
		</g>
	</g>
	<g>
		<rect x="561.102" y="310.794" style="fill:#DBCF21;" width="60.268" height="51.253"/>
		<ellipse style="fill:#A39A19;" cx="591.236" cy="310.795" rx="30.134" ry="5.643"/>
		<path style="fill:#FFE433;" d="M561.102,366.133c0,0,18.123,11.914,66.803,1.92c49.987-10.262,73.36-1.92,73.36-1.92v-49.292
			c-22.562-16.231-114.665,9.581-140.163-5.643V366.133z"/>
		<g>
			<path style="fill:#474747;" d="M611.03,326.361c0.59,0,1.068-0.478,1.068-1.068v-10c-0.714,0.051-1.428,0.101-2.137,0.149v9.851
				C609.962,325.883,610.439,326.361,611.03,326.361z"/>
			<path style="fill:#474747;" d="M619.23,314.748v16.646c0,0.885,0.718,1.603,1.603,1.603c0.885,0,1.603-0.718,1.603-1.603v-16.908
				C621.363,314.577,620.297,314.662,619.23,314.748z"/>
			<path style="fill:#474747;" d="M592.988,326.361c0.59,0,1.068-0.478,1.068-1.068v-9.12c-0.718,0.013-1.43,0.023-2.137,0.03v9.09
				C591.919,325.883,592.397,326.361,592.988,326.361z"/>
			<path style="fill:#474747;" d="M601.743,326.361c0.59,0,1.068-0.478,1.068-1.068v-9.432c-0.712,0.036-1.433,0.077-2.137,0.108
				v9.324C600.674,325.883,601.152,326.361,601.743,326.361z"/>
			<path style="fill:#474747;" d="M676.299,324.224c0.59,0,1.068-0.478,1.068-1.068v-11.812c-0.699-0.025-1.421-0.035-2.137-0.049
				v11.861C675.23,323.746,675.708,324.224,676.299,324.224z"/>
			<path style="fill:#474747;" d="M692.207,313.096v15.377c0,0.884,0.718,1.602,1.603,1.602c0.885,0,1.603-0.718,1.603-1.602
				v-14.465C694.403,313.668,693.333,313.365,692.207,313.096z"/>
			<path style="fill:#474747;" d="M685.585,324.224c0.591,0,1.068-0.478,1.068-1.068v-11.078c-0.694-0.092-1.416-0.167-2.137-0.243
				v11.32C684.516,323.746,684.994,324.224,685.585,324.224z"/>
			<path style="fill:#474747;" d="M576.007,326.361c0.59,0,1.068-0.478,1.068-1.068v-9.69c-0.733-0.079-1.431-0.179-2.137-0.274
				v9.964C574.938,325.883,575.416,326.361,576.007,326.361z"/>
			<path style="fill:#474747;" d="M666.474,311.336v11.819c0,0.59,0.478,1.068,1.068,1.068c0.59,0,1.068-0.478,1.068-1.068v-11.877
				C667.911,311.291,667.186,311.318,666.474,311.336z"/>
			<path style="fill:#474747;" d="M567.252,326.361c0.591,0,1.068-0.478,1.068-1.068v-11.251c-0.73-0.193-1.456-0.39-2.137-0.614
				v11.864C566.184,325.883,566.661,326.361,567.252,326.361z"/>
			<path style="fill:#474747;" d="M630.649,326.361c0.591,0,1.068-0.478,1.068-1.068v-11.601c-0.713,0.062-1.425,0.123-2.137,0.185
				v11.416C629.58,325.883,630.058,326.361,630.649,326.361z"/>
			<path style="fill:#474747;" d="M581.568,315.981v15.413c0,0.885,0.718,1.603,1.603,1.603s1.603-0.718,1.603-1.603v-15.277
				C583.692,316.079,582.608,316.044,581.568,315.981z"/>
			<path style="fill:#474747;" d="M657.727,330.86c0.885,0,1.603-0.718,1.603-1.603v-17.645c-1.057,0.054-2.132,0.119-3.205,0.183
				v17.462C656.124,330.142,656.842,330.86,657.727,330.86z"/>
			<path style="fill:#474747;" d="M639.405,326.361c0.59,0,1.068-0.478,1.068-1.068v-12.349c-0.713,0.059-1.422,0.118-2.137,0.179
				v12.17C638.336,325.883,638.814,326.361,639.405,326.361z"/>
			<path style="fill:#474747;" d="M648.691,326.361c0.59,0,1.069-0.478,1.069-1.068v-13.077c-0.711,0.051-1.421,0.102-2.137,0.157
				v12.921C647.622,325.883,648.1,326.361,648.691,326.361z"/>
		</g>
	</g>
	<path style="fill:#272F32;" d="M746.713,274.179h-33.031h-95.349l-16.384-59.952c-0.887-3.246-3.766-5.551-7.127-5.705
		c-3.379-0.181-6.44,1.876-7.621,5.027l-32.163,85.815l-22.998-69.474c-0.993-3-3.708-5.099-6.862-5.304
		c-3.151-0.188-6.117,1.523-7.491,4.372l-21.811,45.22h-54.947c-1.129,0-2.198,0.246-3.166,0.68
		c0.37,4.986,1.008,9.898,1.893,14.723c0.415,0.069,0.838,0.113,1.273,0.113h59.818c2.979,0,5.694-1.705,6.988-4.388l15.599-32.34
		l23.885,72.152c1.034,3.123,3.925,5.254,7.214,5.318c0.051,0.001,0.102,0.001,0.152,0.001c3.229,0,6.127-2.002,7.264-5.035
		l31.46-83.937l11.618,42.515c0.922,3.374,3.986,5.713,7.483,5.713h99.315h34.988c4.285,0,7.758-3.473,7.758-7.758
		S750.998,274.179,746.713,274.179z"/>
</g>
</svg>
